<?xml version="1.0" encoding="utf-8"?>
<!-- Generator: Adobe Illustrator 27.5.0, SVG Export Plug-In . SVG Version: 6.00 Build 0)  -->
<svg version="1.1" id="b" xmlns="http://www.w3.org/2000/svg" xmlns:xlink="http://www.w3.org/1999/xlink" x="0px" y="0px"
	 viewBox="0 0 1200 125" style="enable-background:new 0 0 1200 125;" xml:space="preserve">
<style type="text/css">
	.st0{fill:none;stroke:#000000;stroke-miterlimit:10;}
</style>
<g id="c">
	<path class="st0" d="M105.4,0.9L105.4,0.9l-70.3,0c-0.1,0-0.2,0-0.3,0v0c-7.7,0-14,6.2-14,14v109.3h84.7
		c7.7-0.1,13.8-6.3,13.8-13.9V0.9H105.4z M97.2,14v0.5l-26.4,34L44,14H97.2L97.2,14z M34.7,23.5l27,36.7l-27,34.7V23.5z
		 M105.4,110.1H41.6v-0.5l63.8-82.4V110.1z"/>
</g>
<g id="c_00000024704677661885763440000002920641429449023888_">
	<path class="st0" d="M257.7,0.9L257.7,0.9l-70.3,0c-0.1,0-0.2,0-0.3,0v0c-7.7,0-14,6.2-14,14v109.3h84.7
		c7.6-0.1,13.8-6.3,13.8-13.9V0.9H257.7z M249.5,14v0.5l-26.5,34L196.3,14H249.5L249.5,14z M187,23.5l27,36.7l-27,34.7V23.5z
		 M257.7,110.1h-63.8v-0.5l63.8-82.4V110.1z"/>
</g>
<g id="c_00000157302212659894686570000013384086370753443255_">
	<path class="st0" d="M410,0.9L410,0.9l-70.3,0c-0.1,0-0.2,0-0.3,0v0c-7.7,0-14,6.2-14,14v109.3h84.7c7.6-0.1,13.8-6.3,13.8-13.9
		V0.9H410z M401.8,14v0.5l-26.5,34L348.6,14H401.8L401.8,14z M339.3,23.5l27,36.7l-27,34.7V23.5z M410,110.1h-63.8v-0.5L410,27.2
		V110.1z"/>
</g>
<g id="c_00000142880743281695596120000000143877077360436609_">
	<path class="st0" d="M562.2,0.9L562.2,0.9l-70.3,0c-0.1,0-0.2,0-0.3,0v0c-7.7,0-14,6.2-14,14v109.3h84.7
		c7.6-0.1,13.8-6.3,13.8-13.9V0.9H562.2z M554.1,14v0.5l-26.5,34L500.9,14H554.1L554.1,14z M491.6,23.5l27,36.7l-27,34.7V23.5z
		 M562.2,110.1h-63.8v-0.5l63.8-82.4V110.1z"/>
</g>
<g id="c_00000162348991342074706260000004961371927569879192_">
	<path class="st0" d="M714.5,0.9L714.5,0.9l-70.3,0c-0.1,0-0.2,0-0.3,0v0c-7.7,0-14,6.2-14,14v109.3h84.7
		c7.7-0.1,13.8-6.3,13.8-13.9V0.9H714.5z M706.4,14v0.5l-26.4,34L653.2,14H706.4L706.4,14z M643.9,23.5l27,36.7l-27,34.7V23.5z
		 M714.5,110.1h-63.8v-0.5l63.8-82.4V110.1z"/>
</g>
<g id="c_00000004522033805684310960000009526336542474907576_">
	<path class="st0" d="M866.8,0.9L866.8,0.9l-70.3,0c-0.1,0-0.2,0-0.3,0v0c-7.7,0-14,6.2-14,14v109.3H867c7.7-0.1,13.8-6.3,13.8-13.9
		V0.9H866.8z M858.7,14v0.5l-26.5,34L805.5,14H858.7L858.7,14z M796.2,23.5l27,36.7l-27,34.7V23.5z M866.8,110.1H803v-0.5l63.8-82.4
		V110.1z"/>
</g>
<g id="c_00000181799118653460837070000001316678264808385944_">
	<path class="st0" d="M1019.1,0.9L1019.1,0.9l-70.3,0c-0.1,0-0.2,0-0.3,0v0c-7.7,0-14,6.2-14,14v109.3h84.7
		c7.6-0.1,13.8-6.3,13.8-13.9V0.9H1019.1z M1011,14v0.5l-26.4,34L957.7,14H1011L1011,14z M948.5,23.5l27,36.7l-27,34.7V23.5z
		 M1019.1,110.1h-63.8v-0.5l63.8-82.4V110.1z"/>
</g>
<g id="c_00000026144577834124947280000014500387928355643825_">
	<path class="st0" d="M1171.4,0.9L1171.4,0.9l-70.3,0c-0.1,0-0.2,0-0.3,0v0c-7.7,0-14,6.2-14,14v109.3h84.7
		c7.7-0.1,13.8-6.3,13.8-13.9V0.9H1171.4z M1163.3,14v0.5l-26.4,34L1110,14H1163.3L1163.3,14z M1100.8,23.5l27,36.7l-27,34.7V23.5z
		 M1171.4,110.1h-63.8v-0.5l63.8-82.4V110.1z"/>
</g>
</svg>
