<?xml version="1.0" encoding="UTF-8"?>
<svg id="Layer_2" data-name="Layer 2" xmlns="http://www.w3.org/2000/svg" viewBox="0 0 330.38 123.24">
  <defs>
    <style>
      .cls-1 {
        fill: #1d1d1f;
      }
    </style>
  </defs>
  <g id="Layer_1-2" data-name="Layer 1">
    <path class="cls-1" d="m84.58,0v.02H14.29c-.1,0-.21.02-.33.02v-.04C6.25,0,0,6.25,0,13.97v109.27h84.72c7.65-.08,13.81-6.29,13.81-13.95V0h-13.95Zm-8.13,13.1v.52l-26.45,33.97L23.19,13.1h53.27ZM13.95,22.58l26.99,36.68-26.99,34.65V22.58Zm70.62,86.69H20.78v-.5L84.58,26.32v82.95Z"/>
    <path class="cls-1" d="m330.38,98.77c0,6.07-4.94,10.99-11.01,10.99h-52.83c-6.45,0-11.67-5.22-11.67-11.67l58.11-74.7v-.41h-54.47l-29.05,45.9v40.88h-12.21v-41.14l-30.15-47.96v64.53c0,15.47-9.38,26.48-28.13,26.48-17.51,0-28.5-9.51-28.5-32.06v-.63c-.03-.25-.08-.48-.08-.72,0-3.39,2.75-6.12,6.12-6.12s6.12,2.73,6.12,6.12c0,.3-.05.58-.08.87v.08c0,17.25,5.43,22.4,16.84,22.4,9.78,0,15.49-5.02,15.49-17.25V16.55c0-2.14,1.74-3.88,3.88-3.88h13.54c2.07,0,4,1.09,5.09,2.88l26.1,43.3h.28l24.83-40.62c2.07-3.37,5.71-5.45,9.66-5.55v-.02h69.8c0,6.17-2.04,12.15-5.81,17.03l-53.12,68.66v.41h61.25Z"/>
  </g>
</svg>